# xmcd CD database file
#
# Track frame offsets:
#	150
#	10625
#	23079
#	36371
#	49581
#	65230
#	79412
#	91837
#	104904
#	115579
#
# Disc length: 1783 seconds
#
# Revision: 0
# Processed by: cddbd v1.4PL0 Copyright (c) Steve Scherf et al.
# Submitted via: CDex 1.51
#
DISCID=7d06f50a
DTITLE=P.K. Dwyer - Blues Guy Now
DYEAR=2003
DGENRE=Blues
TTITLE0=Blues Guy Now
TTITLE1=Celebration Blues
TTITLE2=Baggage Blues
TTITLE3=Easter Sunday
TTITLE4=Keep On Walkin
TTITLE5=Please Don't Make Me Beg
TTITLE6=Trouble Here at Home
TTITLE7=$800
TTITLE8=No Longer My Girlfriend
TTITLE9=Ol' Jack Pot
EXTD=YEAR: 2003
EXTT0=
EXTT1=
EXTT2=
EXTT3=
EXTT4=
EXTT5=
EXTT6=
EXTT7=
EXTT8=
EXTT9=
PLAYORDER=
